<svg xmlns="http://www.w3.org/2000/svg" viewBox="0 0 24 24" xmlns="http://www.w3.org/2000/svg" fill="none" stroke="currentColor" stroke-width="1.5" stroke-linecap="round" stroke-linejoin="round"><path d="M23.88 12 C23.88 15.96 23.88 19.92 23.88 23.88 C23.88 23.88 23.88 23.88 23.88 23.88 C15.96 23.88 8.04 23.88 0.12 23.88 C0 23.88 0 23.88 0 23.88 C0 15.96 0 8.04 0 0.12 C0 0 0 0 0.12 0 C8.04 0 15.96 0 23.88 0 C23.88 0 23.88 0 23.88 0.12 C23.88 4.08 23.88 8.04 23.88 12 L23.88 12 Z M12.84 12.96 C12.84 12.96 12.96 12.96 12.96 12.96 C13.08 12.84 13.2 12.72 13.32 12.6 C13.44 12.48 13.44 12.36 13.56 12.24 C13.68 12 13.8 11.88 13.8 11.64 C13.92 11.52 13.92 11.28 13.92 11.04 C14.04 10.92 14.04 10.68 14.04 10.44 C14.04 10.32 14.04 10.2 14.04 10.08 C14.16 9.84 14.16 9.72 14.16 9.48 C14.16 9.36 14.16 9.24 14.16 9.12 C14.16 9 14.16 8.88 14.16 8.76 C14.16 8.64 14.16 8.52 14.16 8.4 C14.16 8.16 14.16 8.04 14.16 7.8 C14.16 7.68 14.16 7.56 14.16 7.32 C14.16 7.2 14.16 6.96 14.16 6.84 C14.16 6.72 14.16 6.6 14.16 6.48 C14.16 6.24 14.16 6.12 14.16 6 C14.16 5.76 14.16 5.64 14.16 5.52 C14.16 5.28 14.16 5.16 14.16 4.92 C14.16 4.8 14.16 4.8 14.16 4.68 C14.16 4.44 14.16 4.2 14.16 3.96 C14.16 3.84 14.16 3.72 14.16 3.6 C14.16 3.36 14.16 3.12 14.16 2.88 C14.16 2.76 14.16 2.52 14.16 2.4 C14.16 2.16 14.16 2.04 14.16 1.8 C14.16 1.68 14.16 1.56 14.16 1.44 C14.16 1.32 14.16 1.2 14.16 1.08 C14.16 0.96 14.16 0.84 14.16 0.72 C14.16 0.6 14.16 0.48 14.16 0.36 C14.16 0.24 14.16 0.24 14.04 0.12 C14.04 0.12 14.04 0.12 14.04 0.12 C14.04 0.12 13.92 0.12 13.92 0.12 C13.92 0.12 13.92 0.12 13.92 0.12 C13.92 0.24 13.92 0.24 13.92 0.36 C13.92 0.48 13.92 0.6 13.92 0.72 C13.92 0.84 13.92 0.96 13.92 1.08 C13.92 1.2 13.92 1.32 13.92 1.44 C13.92 1.56 13.92 1.68 13.92 1.8 C13.92 2.04 13.92 2.16 13.92 2.28 C13.92 2.52 13.92 2.64 13.92 2.76 C13.92 3 13.92 3.12 13.92 3.36 C13.92 3.48 13.92 3.72 13.92 3.84 C13.92 4.08 13.92 4.32 13.92 4.44 C13.92 4.68 13.92 4.8 13.92 5.04 C13.92 5.16 13.92 5.28 13.92 5.52 C13.92 5.64 13.92 5.76 13.92 5.88 C13.92 6 13.92 6.12 13.92 6.24 C13.92 6.48 13.92 6.6 13.92 6.84 C13.92 6.96 13.92 7.08 13.92 7.2 C13.92 7.44 13.92 7.56 13.92 7.68 C13.92 7.8 13.92 7.92 13.92 8.04 C13.92 8.28 13.92 8.4 13.92 8.64 C13.92 8.76 13.92 8.88 13.92 9 C13.92 9.24 13.92 9.36 13.92 9.48 C13.92 9.72 13.92 9.84 13.92 9.96 C13.92 10.2 13.8 10.32 13.8 10.44 C13.8 10.68 13.8 10.8 13.68 11.04 C13.68 11.16 13.68 11.28 13.56 11.52 C13.56 11.76 13.44 11.88 13.32 12.12 C13.2 12.24 13.08 12.36 12.96 12.48 C12.96 12.6 12.84 12.72 12.84 12.84 C12.84 12.84 12.84 12.96 12.84 12.96 L12.84 12.96 Z M11.16 12.96 C11.16 12.84 11.04 12.72 11.04 12.6 C10.92 12.48 10.8 12.36 10.68 12.24 C10.56 12 10.44 11.88 10.44 11.64 C10.32 11.52 10.32 11.28 10.32 11.04 C10.2 10.92 10.2 10.8 10.2 10.68 C10.2 10.56 10.2 10.44 10.2 10.32 C10.2 10.2 10.08 10.08 10.08 9.96 C10.08 9.84 10.08 9.6 10.08 9.48 C10.08 9.36 10.08 9.24 10.08 9.12 C10.08 9 10.08 8.88 10.08 8.64 C10.08 8.52 10.08 8.4 10.08 8.28 C10.08 8.16 10.08 7.92 10.08 7.8 C10.08 7.68 10.08 7.56 10.08 7.44 C10.08 7.2 10.08 7.08 10.08 6.96 C10.08 6.72 10.08 6.6 10.08 6.36 C10.08 6.24 10.08 6.12 10.08 5.88 C10.08 5.76 10.08 5.64 10.08 5.52 C9.96 5.28 9.96 5.16 9.96 5.04 C9.96 4.92 9.96 4.8 9.96 4.68 C9.96 4.44 9.96 4.2 9.96 3.96 C9.96 3.84 9.96 3.72 9.96 3.6 C9.96 3.36 9.96 3.12 9.96 2.88 C9.96 2.76 9.96 2.64 9.96 2.4 C9.96 2.16 9.96 2.04 9.96 1.8 C9.96 1.68 9.96 1.56 9.96 1.44 C9.96 1.32 9.96 1.2 9.96 1.08 C9.96 0.96 9.96 0.84 9.96 0.72 C9.96 0.6 9.96 0.48 9.96 0.36 C9.96 0.24 9.96 0.24 10.08 0.12 C10.08 0.12 10.08 0.12 10.08 0.12 C10.08 0.12 10.08 0.12 10.08 0.12 C10.08 0.12 10.08 0.12 10.08 0.12 C10.08 0.24 10.08 0.24 10.08 0.36 C10.08 0.36 10.08 0.36 10.08 0.36 C10.08 0.48 10.2 0.6 10.2 0.72 C10.2 0.84 10.2 0.96 10.2 1.08 C10.2 1.2 10.2 1.32 10.2 1.44 C10.2 1.56 10.2 1.68 10.2 1.8 C10.2 2.04 10.2 2.16 10.2 2.4 C10.2 2.52 10.2 2.76 10.2 2.88 C10.2 3.12 10.2 3.24 10.2 3.48 C10.2 3.72 10.2 3.84 10.2 3.96 C10.2 4.2 10.2 4.32 10.2 4.44 C10.2 4.68 10.2 4.8 10.2 4.92 C10.2 5.16 10.2 5.16 10.2 5.28 C10.2 5.52 10.2 5.64 10.2 5.76 C10.2 5.88 10.2 6 10.2 6.12 C10.32 6.36 10.32 6.48 10.32 6.6 C10.32 6.72 10.32 6.96 10.32 7.08 C10.32 7.2 10.32 7.32 10.32 7.44 C10.32 7.56 10.32 7.8 10.32 7.92 C10.32 8.04 10.32 8.28 10.32 8.4 C10.32 8.52 10.32 8.64 10.32 8.76 C10.32 8.88 10.32 9 10.32 9.12 C10.32 9.24 10.32 9.48 10.32 9.6 C10.32 9.72 10.32 9.84 10.44 9.96 C10.44 10.08 10.44 10.2 10.44 10.32 C10.44 10.44 10.44 10.56 10.44 10.68 C10.44 10.8 10.56 10.92 10.56 11.04 C10.56 11.16 10.68 11.28 10.68 11.4 C10.68 11.52 10.8 11.64 10.8 11.76 C10.92 11.88 11.04 12 11.04 12.12 C11.16 12.24 11.16 12.36 11.28 12.48 C11.28 12.6 11.4 12.72 11.4 12.84 C11.4 12.96 11.28 12.96 11.28 12.96 C11.16 13.08 11.04 12.96 10.92 12.96 C10.8 12.96 10.68 12.96 10.56 12.96 C10.44 12.96 10.32 12.96 10.2 12.96 C10.08 12.96 9.96 12.96 9.84 12.96 C9.6 12.96 9.48 12.96 9.36 12.96 C9.24 12.96 9.12 12.96 9 12.96 C8.88 12.96 8.76 12.96 8.64 12.96 C8.52 12.96 8.4 12.96 8.28 12.96 C8.16 12.96 7.92 12.96 7.8 12.96 C7.56 12.96 7.44 12.96 7.32 12.96 C7.08 12.96 6.84 12.96 6.6 12.96 C6.48 12.96 6.36 12.96 6.12 12.96 C6 12.96 5.88 12.96 5.76 12.96 C5.64 12.96 5.52 12.96 5.4 12.96 C5.28 12.96 5.16 12.96 5.04 12.96 C4.8 12.96 4.68 12.96 4.56 12.96 C4.32 12.96 4.08 12.96 3.84 12.96 C3.6 12.96 3.36 12.96 3.12 12.96 C3 12.96 2.88 12.96 2.76 12.96 C2.64 12.96 2.64 12.96 2.52 12.96 C2.4 12.96 2.4 12.96 2.28 12.84 C2.28 12.84 2.28 12.84 2.28 12.84 C2.28 12.84 2.28 12.84 2.28 12.84 C2.28 12.84 2.28 12.84 2.28 12.84 C2.28 12.84 2.28 12.84 2.28 12.84 C2.28 12.84 2.28 12.84 2.28 12.84 C2.28 12.84 2.28 12.84 2.28 12.84 C2.28 12.84 2.28 12.84 2.28 12.84 C2.28 12.84 2.28 12.84 2.28 12.84 C2.28 12.84 2.28 12.84 2.28 12.84 C2.28 12.84 2.28 12.84 2.28 12.84 C2.28 12.84 2.28 12.84 2.28 12.84 C2.28 12.84 2.28 12.84 2.28 12.84 C2.28 12.84 2.28 12.84 2.28 12.84 C2.28 12.84 2.28 12.84 2.28 12.84 C2.28 12.84 2.28 12.84 2.28 12.84 C2.28 12.84 2.28 12.84 2.28 12.84 C2.28 12.84 2.28 12.84 2.28 12.84 C2.28 12.84 2.28 12.84 2.28 12.84 C2.28 12.84 2.28 12.84 2.28 12.84 C2.28 12.84 2.28 12.84 2.28 12.84 C2.28 12.84 2.28 12.84 2.28 12.84 C2.28 12.84 2.28 12.84 2.28 12.84 C2.28 12.84 2.28 12.84 2.28 12.84 C2.28 12.84 2.28 12.84 2.28 12.84 C2.28 12.84 2.28 12.84 2.28 12.84 C2.28 12.84 2.28 12.84 2.28 12.84 C2.28 12.84 2.28 12.84 2.28 12.84 C2.28 12.84 2.28 12.84 2.28 12.84 C2.28 12.84 2.28 12.84 2.28 12.84 C2.28 12.84 2.28 12.84 2.28 12.84 C2.28 12.84 2.28 12.84 2.28 12.84 C2.28 12.84 2.28 12.84 2.28 12.84 C2.28 12.84 2.28 12.84 2.28 12.84 C2.28 12.84 2.28 12.84 2.28 12.84 C2.28 12.84 2.28 12.84 2.28 12.84 C2.28 12.84 2.28 12.84 2.28 12.84 C2.28 12.84 2.28 12.84 2.28 12.84 C2.28 12.84 2.28 12.84 2.28 12.84 C2.28 12.84 2.28 12.84 2.28 12.84 C2.28 12.84 2.28 12.84 2.28 12.84 C2.28 12.84 2.28 12.84 2.28 12.84 C2.28 12.84 2.28 12.84 2.28 12.84 C2.28 12.84 2.28 12.84 2.28 12.84 C2.28 12.84 2.28 12.84 2.28 12.84 C2.28 12.84 2.28 12.84 2.28 12.84 C2.28 12.84 2.28 12.84 2.28 12.84 C2.28 12.84 2.28 12.84 2.28 12.84 C2.28 12.84 2.28 12.84 2.28 12.84 C2.28 12.84 2.28 12.84 2.28 12.84 C2.28 12.84 2.28 12.84 2.28 12.84 C2.28 12.84 2.28 12.84 2.28 12.84 C2.28 12.84 2.28 12.84 2.28 12.84 C2.28 12.84 2.28 12.84 2.28 12.84 C2.28 12.84 2.28 12.84 2.28 12.84 C2.28 12.84 2.28 12.84 2.28 12.84 C2.28 12.84 2.28 12.84 2.28 12.84 C2.28 12.84 2.28 12.84 2.28 12.84 C2.28 12.84 2.28 12.84 2.28 12.84 C2.28 12.84 2.28 12.84 2.28 12.84 C2.28 12.84 2.28 12.84 2.28 12.84 C2.28 12.84 2.28 12.84 2.28 12.84 C2.28 12.84 2.28 12.84 2.28 12.84 C2.28 12.84 2.28 12.84 2.28 12.84 C2.28 12.84 2.28 12.84 2.28 12.84 C2.28 12.84 2.28 12.84 2.28 12.84 C2.28 12.84 2.28 12.84 2.28 12.84 C2.28 12.84 2.28 12.84 2.28 12.84 C2.28 12.84 2.28 12.84 2.28 12.84 C2.28 12.84 2.28 12.84 2.28 12.84 C2.28 12.84 2.28 12.84 2.28 12.84 C2.28 12.84 2.28 12.84 2.28 12.84 C2.28 12.84 2.28 12.84 2.28 12.84 C2.28 12.84 2.28 12.84 2.28 12.84 C2.28 12.84 2.28 12.84 2.28 12.84 C2.28 12.84 2.28 12.84 2.28 12.84 C2.28 12.84 2.28 12.84 2.28 12.84 C2.28 12.84 2.28 12.84 2.28 12.84 C2.28 12.84 2.28 12.84 2.28 12.84 C2.28 12.84 2.28 12.84 2.28 12.84 C2.28 12.84 2.28 12.84 2.28 12.84 C2.28 12.84 2.28 12.84 2.28 12.84 C2.28 12.84 2.28 12.84 2.28 12.84 C2.28 12.84 2.28 12.84 2.28 12.84 C2.28 12.84 2.28 12.84 2.28 12.84 C2.28 12.84 2.28 12.84 2.28 12.84 C2.28 12.84 2.28 12.84 2.28 12.84 C2.28 12.84 2.28 12.84 2.28 12.84 C2.28 12.84 2.28 12.84 2.28 12.84 C2.28 12.84 2.28 12.84 2.28 12.84 C2.28 12.84 2.28 12.84 2.28 12.84 C2.28 12.84 2.28 12.84 2.28 12.84 C2.28 12.84 2.28 12.84 2.28 12.84 C2.28 12.84 2.28 12.84 2.28 12.84 C2.28 12.84 2.28 12.84 2.28 12.84 C2.28 12.84 2.28 12.84 2.28 12.84 C2.28 12.84 2.28 12.84 2.28 12.84 C2.28 12.84 2.28 12.84 2.28 12.84 C2.28 12.84 2.28 12.84 2.28 12.84 C2.28 12.84 2.28 12.84 2.28 12.84 C2.28 12.84 2.28 12.84 2.28 12.84 C2.28 12.84 2.28 12.84 2.28 12.84 C2.28 12.84 2.28 12.84 2.28 12.84 C2.28 12.84 2.28 12.84 2.28 12.84 C2.28 12.84 2.28 12.84 2.28 12.84 C2.28 12.84 2.28 12.84 2.28 12.84 C2.28 12.84 2.28 12.84 2.28 12.84 C2.28 12.84 2.28 12.84 2.28 12.84 C2.28 12.84 2.28 12.84 2.28 12.84 C2.28 12.84 2.28 12.84 2.28 12.84 C2.28 12.84 2.28 12.84 2.28 12.84 C2.28 12.84 2.28 12.84 2.28 12.84 C2.28 12.84 2.28 12.84 2.28 12.84 C2.28 12.84 2.28 12.84 2.28 12.84 C2.28 12.84 2.28 12.84 2.28 12.84 C2.28 12.84 2.28 12.84 2.28 12.84 C2.28 12.84 2.28 12.84 2.28 12.84 C2.28 12.84 2.28 12.84 2.28 12.84 C2.28 12.84 2.28 12.84 2.28 12.84 C2.28 12.84 2.28 12.84 2.28 12.84 C2.28 12.84 2.28 12.84 2.28 12.84 C2.28 12.84 2.28 12.84 2.28 12.84 C2.28 12.84 2.28 12.84 2.28 12.84 C2.28 12.84 2.28 12.84 2.28 12.84 C2.28 12.84 2.28 12.84 2.28 12.84 C2.28 12.84 2.28 12.84 2.28 12.84 C2.28 12.84 2.28 12.84 2.28 12.84 C2.28 12.84 2.28 12.84 2.28 12.84 C2.28 12.84 2.28 12.84 2.28 12.84 C2.28 12.84 2.28 12.84 2.28 12.84 C2.28 12.84 2.28 12.84 2.28 12.84 C2.28 12.84 2.28 12.84 2.28 12.84 C2.28 12.84 2.28 12.84 2.28 12.84 C2.28 12.84 2.28 12.84 2.28 12.84 C2.28 12.84 2.28 12.84 2.28 12.84 C2.28 12.84 2.28 12.84 2.28 12.84 C2.28 12.84 2.28 12.84 2.28 12.84 C2.28 12.84 2.28 12.84 2.28 12.84 C2.28 12.84 2.28 12.84 2.28 12.84 C2.28 12.84 2.28 12.84 2.28 12.84 C2.28 12.84 2.28 12.84 2.28 12.84 C2.28 12.84 2.28 12.84 2.28 12.84 C2.28 12.84 2.28 12.84 2.28 12.84 C2.28 12.84 2.28 12.84 2.28 12.84 C2.28 12.84 2.28 12.84 2.28 12.84 C2.28 12.84 2.28 12.84 2.28 12.84 C2.28 12.84 2.28 12.84 2.28 12.84 C2.28 12.84 2.28 12.84 2.28 12.84 C2.28 12.84 2.28 12.84 2.28 12.84 C2.28 12.84 2.28 12.84 2.28 12.84 C2.28 12.84 2.28 12.84 2.28 12.84 C2.28 12.84 2.28 12.84 2.28 12.84 C2.28 12.84 2.28 12.84 2.28 12.84 C2.28 12.84 2.28 12.84 2.28 12.84 C2.28 12.84 2.28 12.84 2.28 12.84 C2.04 12.84 2.04 12.84 2.04 12.84 C2.04 12.84 2.04 12.84 2.04 12.84 C2.04 12.84 2.04 12.84 2.04 12.84 C2.04 12.84 2.04 12.84 2.04 12.84 C2.04 12.84 2.04 12.84 2.04 12.84 C2.04 12.84 2.04 12.84 2.04 12.84 C2.04 12.84 2.04 12.84 2.04 12.84 C2.04 12.84 2.04 12.84 2.04 12.84 C2.04 12.84 2.04 12.84 2.04 12.84 C2.04 12.84 2.04 12.84 2.04 12.84 C2.04 12.84 2.04 12.84 2.04 12.84 C2.04 12.84 2.04 12.84 2.04 12.84 C2.04 12.84 2.04 12.84 2.04 12.84 C2.04 12.84 2.04 12.84 2.04 12.84 C2.04 12.84 2.04 12.84 2.04 12.84 C2.04 12.84 2.04 12.84 2.04 12.84 C2.04 12.84 2.04 12.84 2.04 12.84 C2.04 12.84 2.04 12.84 2.04 12.84 C2.04 12.84 2.04 12.84 2.04 12.84 C2.04 12.84 2.04 12.84 2.04 12.84 C2.04 12.84 2.04 12.84 2.04 12.84 C2.04 12.84 2.04 12.84 2.04 12.84 C2.04 12.84 2.04 12.84 2.04 12.84 C2.04 12.84 2.04 12.84 2.04 12.84 C2.04 12.84 2.04 12.84 2.04 12.84 C2.04 12.84 2.04 12.84 2.04 12.84 C2.04 12.84 2.04 12.84 2.04 12.84 C2.04 12.84 2.04 12.84 2.04 12.84 C2.04 12.84 2.04 12.84 2.04 12.84 C2.04 12.84 2.04 12.84 2.04 12.84 C2.04 12.84 2.04 12.84 2.04 12.84 C2.04 12.84 2.04 12.84 2.04 12.84 C2.04 12.84 2.04 12.84 2.04 12.84 C2.04 12.84 2.04 12.84 2.04 12.84 C2.04 12.84 2.04 12.84 2.04 12.84 C2.04 12.84 2.04 12.84 2.04 12.84 C2.04 12.84 2.04 12.84 2.04 12.84 C2.04 12.84 2.04 12.84 2.04 12.84 C2.04 12.84 2.04 12.84 2.04 12.84 C2.04 12.84 2.04 12.84 2.04 12.84 C2.04 12.84 2.04 12.84 2.04 12.84 C2.04 12.84 2.04 12.84 2.04 12.84 C2.04 12.84 2.04 12.84 2.04 12.84 C2.04 12.84 2.04 12.84 2.04 12.84 C2.04 12.84 2.04 12.84 2.04 12.84 C2.04 12.84 2.04 12.84 2.04 12.84 C2.04 12.84 2.04 12.84 2.04 12.84 C2.04 12.84 2.04 12.84 2.04 12.84 C2.04 12.84 2.04 12.84 2.04 12.84 C2.04 12.84 2.04 12.84 2.04 12.84 C2.04 12.84 2.04 12.84 2.04 12.84 C2.04 12.84 2.04 12.84 2.04 12.84 C2.04 12.84 2.04 12.84 2.04 12.84 C2.04 12.84 2.04 12.84 2.04 12.84 C2.04 12.84 2.04 12.84 2.04 12.84 C2.04 12.84 2.04 12.84 2.04 12.84 C2.04 12.84 2.04 12.84 2.04 12.84 C2.04 12.84 2.04 12.84 2.04 12.84 C2.04 12.84 2.04 12.84 2.04 12.84 C2.04 12.84 2.04 12.84 2.04 12.84 C2.04 12.84 2.04 12.84 2.04 12.84 C2.04 12.84 2.04 12.84 2.04 12.84 C2.04 12.84 2.04 12.84 2.04 12.84 C2.04 12.84 2.04 12.84 2.04 12.84 C2.04 12.84 2.04 12.84 2.04 12.84 C2.04 12.84 2.04 12.84 2.04 12.84" /></svg>