<svg viewBox="0 0 24 24" fill="none" stroke="currentColor" stroke-width="1.5" stroke-linecap="round" stroke-linejoin="round">
<path d="M12 3V9a6 6 0 0 0 6 6h-3v3l-3-3h-3V9zm-4 12H6a2 2 0 0 1-2-2v-4a2 2 0 0 1 2-2h8a2 2 0 0 1 2 2v4a2 2 0 0 1-2 2z"/>
<path d="M15.5 7C16.397 7 17 7.603 17 8.5V11h-3v-2.5C14 7.603 14.603 7 15.5 7z"/>
<path d="M8.5 7C7.603 7 7 7.603 7 8.5V11h-3v-2.5C4 7.603 4.603 7 5.5 7z"/>
<path d="M12 19c-2.166 0-4-1.834-4-4s1.834-4 4-4 4 1.834 4 4-1.834 4-4 4zm0-7a2 2 0 1 0 0-4 2 2 0 0 0 0 4z"/>
<path d="M19 15l-6 6-6-6z"/>
</svg>